<mxfile host="65bd71144e">
    <diagram id="Y6XVzf5yhGTYlBGOrcBr" name="Page-1">
        <mxGraphModel dx="1242" dy="568" grid="1" gridSize="10" guides="1" tooltips="1" connect="1" arrows="1" fold="1" page="1" pageScale="1" pageWidth="1654" pageHeight="2336" math="0" shadow="0">
            <root>
                <mxCell id="0"/>
                <mxCell id="1" parent="0"/>
                <mxCell id="2" value="sd Use Case 5" style="shape=umlFrame;whiteSpace=wrap;html=1;width=90;height=30;" parent="1" vertex="1">
                    <mxGeometry x="1070" y="120" width="610" height="510" as="geometry"/>
                </mxCell>
                <mxCell id="3" value="&lt;b&gt;Customer&lt;/b&gt;" style="shape=umlLifeline;participant=umlActor;perimeter=lifelinePerimeter;whiteSpace=wrap;html=1;container=1;collapsible=0;recursiveResize=0;verticalAlign=top;spacingTop=36;outlineConnect=0;" parent="1" vertex="1">
                    <mxGeometry x="1090" y="200" width="20" height="440" as="geometry"/>
                </mxCell>
                <mxCell id="4" value="" style="html=1;points=[];perimeter=orthogonalPerimeter;" parent="3" vertex="1">
                    <mxGeometry x="5" y="100" width="10" height="240" as="geometry"/>
                </mxCell>
                <mxCell id="5" value="" style="shape=umlLifeline;participant=umlBoundary;perimeter=lifelinePerimeter;whiteSpace=wrap;html=1;container=1;collapsible=0;recursiveResize=0;verticalAlign=top;spacingTop=36;outlineConnect=0;" parent="1" vertex="1">
                    <mxGeometry x="1180" y="200" width="61" height="440" as="geometry"/>
                </mxCell>
                <mxCell id="6" value="&lt;b&gt;Select Store Page&amp;nbsp;&lt;/b&gt;" style="text;html=1;strokeColor=none;fillColor=none;align=center;verticalAlign=middle;whiteSpace=wrap;rounded=0;" parent="5" vertex="1">
                    <mxGeometry x="-11" y="40" width="86" height="30" as="geometry"/>
                </mxCell>
                <mxCell id="7" value="" style="html=1;points=[];perimeter=orthogonalPerimeter;" parent="5" vertex="1">
                    <mxGeometry x="27" y="100" width="10" height="90" as="geometry"/>
                </mxCell>
                <mxCell id="8" value="" style="shape=umlLifeline;participant=umlBoundary;perimeter=lifelinePerimeter;whiteSpace=wrap;html=1;container=1;collapsible=0;recursiveResize=0;verticalAlign=top;spacingTop=36;outlineConnect=0;" parent="1" vertex="1">
                    <mxGeometry x="1320" y="200" width="61" height="440" as="geometry"/>
                </mxCell>
                <mxCell id="9" value="&lt;b&gt;Browser Menu Page&lt;/b&gt;" style="text;html=1;strokeColor=none;fillColor=none;align=center;verticalAlign=middle;whiteSpace=wrap;rounded=0;" parent="8" vertex="1">
                    <mxGeometry x="-11" y="40" width="86" height="30" as="geometry"/>
                </mxCell>
                <mxCell id="10" value="" style="html=1;points=[];perimeter=orthogonalPerimeter;" parent="8" vertex="1">
                    <mxGeometry x="25.5" y="160" width="10" height="30" as="geometry"/>
                </mxCell>
                <mxCell id="11" value="" style="html=1;points=[];perimeter=orthogonalPerimeter;" parent="8" vertex="1">
                    <mxGeometry x="25.5" y="220" width="10" height="120" as="geometry"/>
                </mxCell>
                <mxCell id="29" value="&lt;font style=&quot;font-size: 10px;&quot;&gt;displayStoreClose()&lt;/font&gt;" style="html=1;verticalAlign=bottom;endArrow=open;dashed=1;endSize=8;exitX=0.48;exitY=0.991;exitDx=0;exitDy=0;exitPerimeter=0;" parent="8" target="7" edge="1">
                    <mxGeometry relative="1" as="geometry">
                        <mxPoint x="35.50000000000023" y="189.9999999999999" as="sourcePoint"/>
                        <mxPoint x="-100" y="190" as="targetPoint"/>
                    </mxGeometry>
                </mxCell>
                <mxCell id="12" value="" style="shape=umlLifeline;participant=umlControl;perimeter=lifelinePerimeter;whiteSpace=wrap;html=1;container=1;collapsible=0;recursiveResize=0;verticalAlign=top;spacingTop=36;outlineConnect=0;" parent="1" vertex="1">
                    <mxGeometry x="1490" y="200" width="50" height="440" as="geometry"/>
                </mxCell>
                <mxCell id="13" value="" style="html=1;points=[];perimeter=orthogonalPerimeter;" parent="12" vertex="1">
                    <mxGeometry x="20" y="240" width="10" height="100" as="geometry"/>
                </mxCell>
                <mxCell id="14" value="&lt;b&gt;Browser Menu Controller&lt;/b&gt;" style="text;html=1;strokeColor=none;fillColor=none;align=center;verticalAlign=middle;whiteSpace=wrap;rounded=0;" parent="1" vertex="1">
                    <mxGeometry x="1465" y="240" width="100" height="40" as="geometry"/>
                </mxCell>
                <mxCell id="15" value="&lt;font size=&quot;1&quot;&gt;pressMenuButton()&lt;/font&gt;" style="html=1;verticalAlign=bottom;startArrow=oval;endArrow=block;startSize=8;" parent="1" target="7" edge="1">
                    <mxGeometry x="0.0309" relative="1" as="geometry">
                        <mxPoint x="1110" y="300" as="sourcePoint"/>
                        <mxPoint as="offset"/>
                    </mxGeometry>
                </mxCell>
                <mxCell id="16" value="&lt;font size=&quot;1&quot;&gt;selectStore()&lt;/font&gt;" style="html=1;verticalAlign=bottom;startArrow=oval;endArrow=block;startSize=8;" parent="1" source="7" target="10" edge="1">
                    <mxGeometry x="-0.0039" relative="1" as="geometry">
                        <mxPoint x="1290" y="340" as="sourcePoint"/>
                        <mxPoint as="offset"/>
                    </mxGeometry>
                </mxCell>
                <mxCell id="17" value="&lt;font style=&quot;font-size: 10px;&quot;&gt;searchMenu()&lt;/font&gt;" style="html=1;verticalAlign=bottom;startArrow=oval;endArrow=block;startSize=8;" parent="1" source="4" target="11" edge="1">
                    <mxGeometry x="-0.0021" relative="1" as="geometry">
                        <mxPoint x="1285.5" y="400" as="sourcePoint"/>
                        <mxPoint as="offset"/>
                    </mxGeometry>
                </mxCell>
                <mxCell id="18" value="&lt;font size=&quot;1&quot;&gt;selectMenu()&lt;/font&gt;" style="html=1;verticalAlign=bottom;startArrow=oval;endArrow=block;startSize=8;" parent="1" target="13" edge="1">
                    <mxGeometry relative="1" as="geometry">
                        <mxPoint x="1360" y="440" as="sourcePoint"/>
                    </mxGeometry>
                </mxCell>
                <mxCell id="19" value="&lt;font style=&quot;font-size: 9px;&quot;&gt;previewOrder()&lt;/font&gt;" style="html=1;verticalAlign=bottom;startArrow=oval;endArrow=block;startSize=8;exitX=0.96;exitY=0.304;exitDx=0;exitDy=0;exitPerimeter=0;entryX=0.2;entryY=0.005;entryDx=0;entryDy=0;entryPerimeter=0;" parent="1" source="13" target="23" edge="1">
                    <mxGeometry relative="1" as="geometry">
                        <mxPoint x="1567" y="440" as="sourcePoint"/>
                        <mxPoint x="1625.5" y="468.29999999999995" as="targetPoint"/>
                    </mxGeometry>
                </mxCell>
                <mxCell id="20" value="&lt;font style=&quot;font-size: 10px;&quot;&gt;displayNotAvailable()&lt;/font&gt;" style="html=1;verticalAlign=bottom;endArrow=open;dashed=1;endSize=8;exitX=0.48;exitY=0.991;exitDx=0;exitDy=0;exitPerimeter=0;entryX=0.45;entryY=1;entryDx=0;entryDy=0;entryPerimeter=0;" parent="1" source="13" target="11" edge="1">
                    <mxGeometry relative="1" as="geometry">
                        <mxPoint x="1440" y="520" as="sourcePoint"/>
                        <mxPoint x="1360" y="520" as="targetPoint"/>
                    </mxGeometry>
                </mxCell>
                <mxCell id="21" value="&lt;div style=&quot;text-align: start;&quot;&gt;&lt;span style=&quot;background-color: initial; font-size: 0px;&quot;&gt;&lt;font face=&quot;monospace&quot; color=&quot;rgba(0, 0, 0, 0)&quot;&gt;us&lt;/font&gt;&lt;/span&gt;&lt;/div&gt;" style="shape=umlLifeline;participant=umlEntity;perimeter=lifelinePerimeter;whiteSpace=wrap;html=1;container=1;collapsible=0;recursiveResize=0;verticalAlign=top;spacingTop=36;outlineConnect=0;" parent="1" vertex="1">
                    <mxGeometry x="1600" y="200" width="50" height="440" as="geometry"/>
                </mxCell>
                <mxCell id="22" value="&lt;b&gt;&lt;font style=&quot;font-size: 12px;&quot;&gt;User&lt;/font&gt;&lt;/b&gt;" style="text;html=1;strokeColor=none;fillColor=none;align=center;verticalAlign=middle;whiteSpace=wrap;rounded=0;" parent="21" vertex="1">
                    <mxGeometry x="-5" y="40" width="60" height="30" as="geometry"/>
                </mxCell>
                <mxCell id="23" value="" style="html=1;points=[];perimeter=orthogonalPerimeter;fontSize=12;" parent="21" vertex="1">
                    <mxGeometry x="20" y="270" width="10" height="30" as="geometry"/>
                </mxCell>
            </root>
        </mxGraphModel>
    </diagram>
</mxfile>